<svg width="899" height="287" viewBox="0 0 899 287" fill="none" xmlns="http://www.w3.org/2000/svg">
<path d="M123.733 46.2666C122.533 46.5333 102.933 67.6 80.4 93.0666C25.4667 154.8 30.6667 148.133 30.6667 157.067C30.8 192.667 65.8667 229.067 108.667 238C141.867 244.8 177.467 232.8 202.267 206.133C216.267 191.2 224 173.733 224 157.067C224 148.133 229.067 154.8 174.267 93.0666C138.667 53.0666 130.4 44.8 126.667 45.4666C126.267 45.6 124.933 45.8666 123.733 46.2666ZM165.2 115.333C185.867 138.533 202.667 158.267 202.667 159.333C202.667 163.733 197.333 177.467 193.333 183.333C183.867 197.2 170.8 206.933 152.8 213.733C143.2 217.333 140.4 217.867 127.333 217.867C114.267 217.867 111.467 217.333 101.867 213.733C83.8667 206.933 70.8 197.2 61.3333 183.333C57.3333 177.467 52 163.733 52 159.333C52 157.733 126 73.3333 127.333 73.3333C127.6 73.3333 144.667 92.2666 165.2 115.333Z" fill="black"/>
<path d="M86.1333 155.467C83.3333 158.133 83.2 171.067 85.8667 173.2C87.0667 174.133 91.2 174.667 96.2667 174.4L104.667 174L105.067 165.333C105.333 158.4 105.067 156.4 103.2 155.067C99.8667 152.667 88.6667 152.8 86.1333 155.467Z" fill="black"/>
<path d="M151.467 155.067C149.6 156.4 149.333 158.4 149.6 165.333L150 174L158.4 174.4C163.467 174.667 167.6 174.133 168.8 173.2C171.467 171.067 171.333 158.133 168.533 155.467C166 152.8 154.8 152.667 151.467 155.067Z" fill="black"/>
<path d="M118.667 177.333C115.333 180.667 115.067 190 118.133 194.4C119.733 196.8 121.467 197.333 127.333 197.333C136 197.333 138.667 194.533 138.667 185.733C138.667 178 135.333 174.667 127.333 174.667C123.067 174.667 120.533 175.467 118.667 177.333Z" fill="black"/>
<path d="M608.267 126.267L608.667 200.667H620.667H632.667V126.667V52.6666L620.267 52.2666L608 51.8666L608.267 126.267Z" fill="black"/>
<path d="M376.667 97.3333C369.867 99.0667 366.133 100.933 360.667 105.333L355.333 109.467L354.133 105.733C352.133 99.3333 350.933 98.6667 341.2 98.6667H332V150V201.467L344.4 201.067L356.667 200.667L357.067 162.267L357.333 123.867L363.6 120C373.6 113.6 384.533 115.067 389.067 123.2C391.067 126.8 391.333 132.8 391.733 164.267L392.133 201.333H404.133H416V168.267C416 150.133 416.667 132.933 417.333 130.133C418 127.2 420.4 123.067 422.667 120.8C426.267 117.067 427.6 116.667 434.667 116.667C441.6 116.667 443.067 117.2 446.267 120.4L450 124L450.667 162.4L451.333 200.667L463.733 201.067L476 201.467V164.267C476 122.133 475.2 116.8 467.067 107.867C461.067 101.333 457.467 99.3333 447.867 97.6C433.867 94.9333 416.8 100.933 411.2 110.667C408.4 115.333 407.2 115.733 406 111.867C402.8 101.867 387.733 94.4 376.667 97.3333Z" fill="black"/>
<path d="M538 96.9333C510.133 99.8666 493.333 119.333 493.333 148.8C493.333 183.6 518.933 206.4 552.667 201.6C564.267 199.867 577.333 194.267 582.533 188.8L585.733 185.467L581.333 180.133C579.067 177.067 576 174.667 574.533 174.667C573.067 174.667 568.8 176.267 564.933 178.267C554.933 183.333 541.067 184.133 532.8 180C525.733 176.667 520.667 169.2 518.8 159.6L517.733 153.467L550.933 153.067C588.4 152.667 586.667 153.2 586.667 142C586.667 121.467 575.067 104 558.267 99.4666C550 97.1999 543.467 96.3999 538 96.9333ZM552.533 116.533C558.133 118.8 562.8 125.333 563.6 132L564.4 137.333H541.467C523.6 137.333 518.667 136.933 518.667 135.6C518.667 134.667 520.133 130.8 522 127.067C524.667 121.867 526.8 119.6 531.067 117.467C537.6 114.267 546.133 113.867 552.533 116.533Z" fill="black"/>
<path d="M697.2 97.3334C671.067 100.533 654.667 120.533 654.667 149.333C654.667 171.733 664.8 189.867 681.333 197.2C708.667 209.2 739.733 198.933 750.667 174.4C757.067 159.733 756.8 138 750.133 123.067C741.6 104.667 720.8 94.5334 697.2 97.3334ZM715.733 117.867C725.733 123.067 729.733 132 729.733 149.6C729.733 161.2 729.333 163.333 725.867 170.133C721.067 179.6 716 182.667 704.933 182.667C688 182.667 680.133 172.133 680 149.2C680 133.6 685.2 121.6 693.867 117.867C699.333 115.6 711.2 115.467 715.733 117.867Z" fill="black"/>
<path d="M822.533 97.4667C815.6 98.5333 807.6 102.267 801.733 107.2L797.6 110.667L796.8 106.4C795.467 99.6 793.867 98.6667 783.867 98.6667H774.667V150V201.467L787.067 201.067L799.333 200.667L800 162.667L800.667 124.8L807.067 120.8C818.267 114 831.733 114.933 836.267 123.067C837.467 125.2 838.133 136.533 838.667 163.333L839.333 200.667L851.733 201.067L864.133 201.467L863.733 161.733C863.2 117.6 863.067 116.933 853.867 106.667C846.8 98.9333 835.067 95.4667 822.533 97.4667Z" fill="black"/>
</svg>
